<?xml version="1.0" standalone="no"?>
<!DOCTYPE svg PUBLIC "-//W3C//DTD SVG 20010904//EN"
 "http://www.w3.org/TR/2001/REC-SVG-20010904/DTD/svg10.dtd">
<svg version="1.0" xmlns="http://www.w3.org/2000/svg"
 width="2400.000000pt" height="2400.000000pt" viewBox="0 0 2400.000000 2400.000000"
 preserveAspectRatio="xMidYMid meet">

<g transform="translate(0.000000,2400.000000) scale(0.100000,-0.100000)"
fill="#000000" stroke="none">
<path d="M2385 18720 c-4 -6 -11 -7 -17 -4 -6 4 -8 2 -4 -4 3 -6 0 -12 -8 -14
-24 -5 -181 -146 -259 -232 -258 -283 -377 -533 -394 -832 -15 -256 70 -555
219 -771 61 -89 208 -242 288 -300 331 -239 726 -299 1150 -172 271 80 498
200 1212 642 697 432 1322 726 2048 965 1110 366 2301 500 3475 391 1725 -159
3408 -830 4910 -1958 1400 -1051 2597 -2450 3528 -4122 247 -443 404 -762 694
-1409 324 -721 427 -910 603 -1094 347 -365 914 -480 1331 -270 171 86 358
273 444 444 15 32 12 30 -37 -21 -29 -31 -64 -59 -76 -63 -12 -4 -22 -11 -22
-15 0 -4 -10 -7 -22 -8 -11 -1 -25 -8 -29 -15 -5 -7 -9 -9 -9 -4 0 5 -6 4 -12
-1 -7 -6 -20 -11 -28 -12 -8 -1 -37 -3 -65 -5 -27 -3 -51 -5 -52 -6 -8 -5 -61
-3 -77 3 -9 4 -15 3 -12 -2 3 -4 -20 0 -52 11 -31 10 -62 16 -68 14 -7 -3 -18
2 -24 10 -7 8 -21 14 -31 14 -11 0 -19 4 -19 8 0 4 -10 8 -21 9 -12 1 -30 10
-40 19 -11 9 -19 13 -19 8 0 -5 -5 -1 -11 9 -5 9 -15 17 -21 17 -13 0 -19 5
-110 96 -37 37 -70 76 -74 86 -3 11 -8 17 -11 14 -6 -5 -38 39 -62 87 -8 15
-18 27 -23 27 -4 0 -8 7 -8 15 0 9 -7 18 -15 21 -8 3 -17 15 -20 25 -4 11 -17
31 -31 46 -13 14 -24 34 -24 45 0 10 -7 21 -15 24 -8 4 -15 12 -15 19 0 8 -7
20 -15 29 -16 15 -39 66 -37 79 1 4 -2 7 -7 7 -4 0 -19 20 -32 45 -13 25 -27
45 -31 45 -5 0 -8 9 -8 20 0 11 -6 23 -14 26 -8 3 -12 12 -9 20 3 8 0 14 -6
14 -6 0 -11 6 -11 14 0 7 -7 19 -15 26 -9 7 -13 20 -10 28 3 9 0 12 -9 9 -10
-4 -13 -1 -9 9 3 7 0 14 -6 14 -6 0 -11 9 -11 21 0 11 -4 17 -10 14 -9 -6 -14
8 -11 29 1 4 -7 16 -19 26 -11 9 -20 25 -20 34 0 9 -5 16 -11 16 -5 0 -8 4 -5
8 3 5 -3 18 -13 29 -10 11 -22 30 -26 43 -4 12 -22 48 -41 79 -19 31 -34 60
-34 64 0 5 -15 32 -34 60 -44 67 -82 134 -101 175 -8 17 -20 32 -26 32 -5 0
-8 4 -5 9 3 5 -10 28 -28 52 -19 24 -34 45 -33 48 0 4 -13 28 -31 55 -18 28
-32 56 -32 63 0 7 -4 13 -10 13 -5 0 -10 5 -10 11 0 6 -13 28 -30 49 -16 20
-27 40 -23 44 3 3 -8 24 -25 45 -17 21 -33 45 -34 52 -2 7 -11 22 -20 33 -10
10 -15 22 -13 26 3 5 -2 11 -11 14 -8 3 -13 10 -9 15 3 5 1 12 -5 16 -6 4 -7
11 -4 17 5 7 1 9 -9 5 -12 -4 -17 -1 -17 12 0 10 -9 26 -20 36 -11 10 -20 23
-20 29 0 10 -61 100 -115 171 -8 10 -15 25 -15 32 0 7 -4 13 -10 13 -5 0 -9 3
-7 8 1 4 -7 16 -18 28 -31 32 -50 58 -53 69 -1 6 -9 18 -17 28 -8 9 -15 22
-15 27 0 6 -4 10 -10 10 -5 0 -10 5 -10 12 0 12 -91 151 -102 156 -5 2 -8 9
-8 15 0 7 -9 18 -21 25 -12 7 -19 16 -16 19 3 3 -5 17 -19 31 -13 15 -24 32
-24 39 0 6 -4 13 -8 15 -9 3 -72 93 -72 102 0 3 -7 14 -16 23 -47 54 -74 89
-74 101 0 6 -3 12 -7 12 -5 0 -21 21 -37 48 -17 26 -36 54 -43 62 -43 48 -73
86 -73 92 0 7 -29 44 -58 74 -6 7 -12 17 -12 22 0 5 -9 17 -20 27 -11 10 -20
23 -20 29 0 6 -9 17 -20 24 -11 7 -20 19 -20 27 0 8 -6 18 -13 22 -7 4 -29 31
-47 58 -19 28 -38 53 -44 57 -6 4 -7 8 -2 8 6 0 3 6 -5 13 -22 18 -89 102 -89
113 -1 5 -19 27 -40 49 -22 22 -40 43 -40 47 0 5 -8 16 -17 26 -10 10 -31 36
-48 57 -16 21 -41 49 -55 62 -14 13 -21 23 -15 23 5 0 2 6 -6 13 -9 6 -38 39
-65 72 -27 33 -65 78 -86 100 -20 22 -56 65 -80 95 -23 30 -55 65 -71 78 -15
13 -27 28 -27 33 0 5 -21 31 -47 58 -45 46 -131 139 -198 215 -74 83 -321 340
-433 450 -253 248 -297 290 -472 446 -40 36 -82 74 -94 85 -75 68 -258 226
-296 255 -25 19 -54 44 -65 56 -11 11 -38 34 -60 50 -22 16 -42 31 -45 34 -3
3 -27 23 -55 45 -27 22 -66 53 -86 70 -19 16 -46 37 -58 45 -13 8 -29 20 -35
25 -6 6 -27 21 -47 35 -20 14 -49 35 -65 48 -49 38 -260 191 -286 207 -9 6
-55 38 -102 72 -47 34 -99 70 -116 79 -16 10 -30 21 -30 25 0 4 -19 17 -42 29
-23 12 -53 31 -67 41 -67 52 -200 133 -243 150 -16 6 -25 16 -21 22 3 5 2 7
-3 4 -6 -3 -32 10 -59 28 -28 19 -56 34 -62 35 -7 0 -13 4 -13 9 0 5 -24 21
-52 35 -29 15 -82 44 -118 66 -36 22 -72 43 -80 47 -8 3 -27 15 -42 25 -14 10
-33 18 -42 18 -9 0 -16 4 -16 9 0 5 -14 16 -30 25 -19 9 -28 10 -24 3 4 -7 -6
0 -23 16 -16 15 -32 27 -36 27 -12 0 -207 98 -260 130 -26 16 -51 30 -55 31
-8 3 -95 42 -235 108 -49 22 -95 41 -103 41 -8 0 -14 4 -14 10 0 5 -12 13 -27
16 -16 4 -32 10 -38 14 -13 10 -174 81 -189 84 -6 2 -31 12 -56 23 -25 12 -65
29 -90 38 -25 10 -58 23 -75 30 -16 7 -68 27 -115 45 -47 18 -113 43 -147 56
-34 13 -68 24 -76 24 -14 0 -78 23 -107 39 -8 4 -85 29 -170 56 -85 26 -162
50 -170 53 -8 3 -22 6 -30 8 -8 2 -23 7 -35 13 -27 13 -187 56 -202 55 -7 -1
-13 2 -13 6 0 4 -15 10 -32 13 -18 2 -114 25 -213 50 -99 25 -191 48 -205 51
-14 3 -52 10 -85 16 -33 7 -105 22 -160 34 -55 13 -118 24 -139 25 -22 1 -43
4 -47 7 -16 9 -230 44 -369 59 -30 3 -82 10 -115 15 -33 5 -87 11 -120 14 -33
3 -70 8 -83 10 -12 3 -66 8 -119 11 -54 4 -100 8 -103 10 -3 2 -82 7 -176 11
-93 3 -172 8 -176 10 -9 6 -689 5 -763 0 -33 -3 -118 -8 -190 -11 -71 -4 -139
-9 -150 -11 -10 -2 -51 -6 -90 -9 -115 -9 -178 -15 -220 -20 -22 -3 -62 -7
-90 -9 -27 -3 -95 -12 -150 -21 -55 -9 -122 -18 -150 -22 -27 -3 -97 -14 -155
-24 -58 -11 -134 -24 -170 -29 -36 -6 -76 -14 -90 -19 -14 -5 -54 -14 -90 -21
-36 -6 -78 -15 -95 -20 -16 -5 -46 -12 -65 -15 -19 -2 -87 -18 -150 -35 -63
-17 -124 -32 -135 -34 -11 -1 -36 -8 -56 -15 -20 -6 -45 -13 -55 -16 -28 -6
-271 -80 -329 -100 -27 -10 -63 -21 -80 -25 -16 -5 -75 -24 -130 -44 -55 -19
-127 -45 -160 -56 -33 -12 -69 -25 -80 -30 -11 -5 -47 -18 -80 -28 -64 -21
-89 -31 -175 -70 -30 -13 -90 -37 -132 -53 -42 -15 -85 -33 -95 -38 -19 -11
-154 -72 -188 -86 -11 -5 -23 -7 -27 -7 -5 1 -8 -2 -8 -8 0 -5 -6 -10 -13 -10
-11 0 -116 -47 -162 -72 -111 -62 -224 -116 -230 -110 -5 4 -5 2 -2 -5 6 -10
-38 -34 -69 -37 -6 0 -18 -9 -28 -19 -10 -9 -21 -15 -25 -12 -5 2 -18 -5 -29
-16 -12 -11 -22 -17 -22 -13 0 4 -8 0 -17 -8 -10 -8 -54 -32 -98 -54 -44 -21
-86 -45 -93 -51 -7 -7 -20 -13 -28 -13 -8 0 -14 -4 -14 -10 0 -5 -5 -10 -12
-10 -13 0 -164 -85 -190 -108 -9 -8 -22 -11 -27 -7 -6 3 -14 -1 -17 -9 -3 -9
-17 -16 -30 -16 -13 0 -24 -4 -24 -8 0 -7 -121 -71 -175 -93 -72 -28 -105 -44
-105 -49 0 -4 -6 -7 -12 -7 -7 0 -35 -10 -63 -23 -27 -12 -64 -28 -81 -36 -34
-15 -134 -39 -147 -36 -5 2 -6 -2 -2 -8 4 -6 -5 -10 -22 -10 -15 0 -35 -4 -42
-9 -9 -6 -22 -6 -33 0 -12 7 -18 6 -18 -1 0 -7 -17 -10 -43 -9 -24 2 -49 -1
-57 -6 -9 -6 -11 -4 -5 5 6 9 2 10 -15 5 -15 -5 -20 -4 -16 4 5 7 1 9 -8 5 -9
-3 -16 -1 -16 6 0 6 -4 8 -10 5 -5 -3 -10 -1 -10 6 0 8 -4 8 -15 -1 -12 -10
-15 -10 -15 4 0 9 -3 15 -7 14 -5 -1 -18 3 -29 10 -12 6 -31 9 -43 7 -11 -2
-21 0 -21 5 0 8 -28 21 -59 26 -8 2 -17 6 -20 11 -3 5 -13 8 -21 8 -8 0 -30 7
-48 17 -19 11 -42 16 -52 13 -11 -4 -24 1 -32 12 -7 10 -19 19 -26 21 -6 1
-21 11 -33 23 -11 11 -27 18 -35 15 -8 -3 -14 -1 -14 4 0 6 -3 9 -7 8 -14 -3
-68 26 -81 44 -7 10 -19 15 -29 11 -10 -4 -14 -2 -10 4 8 12 -28 44 -45 39 -7
-1 -10 -1 -5 1 12 8 -3 23 -23 23 -10 0 -21 7 -24 16 -4 9 -13 14 -22 10 -8
-3 -13 -2 -10 3 8 12 -21 34 -34 26 -5 -3 -10 2 -10 12 0 15 -2 16 -10 3 -9
-13 -10 -13 -11 0 -1 8 -1 18 0 23 0 4 -4 7 -9 7 -6 0 -10 -6 -11 -12 0 -7 -5
-1 -11 15 -5 15 -14 25 -18 22 -5 -3 -11 -1 -15 5 -4 6 -10 8 -14 6 -4 -3 -8
1 -9 9 -1 8 -3 22 -4 30 -1 11 -5 12 -12 5 -14 -14 -29 -13 -20 2 5 8 0 9 -14
6 -12 -4 -20 -2 -17 2 3 5 1 12 -5 15 -6 4 -10 3 -9 -2 3 -19 -2 -34 -10 -29
-13 8 -18 -12 -16 -61 1 -33 -2 -43 -14 -43 -14 0 -14 -2 -1 -10 10 -6 11 -10
3 -10 -7 0 -13 -4 -13 -10 0 -5 8 -6 18 -3 16 6 16 6 0 -10 -10 -11 -15 -27
-12 -43 3 -15 -2 -37 -11 -50 -8 -13 -15 -30 -15 -39 0 -8 -7 -15 -15 -15 -8
0 -15 -4 -15 -10 0 -15 -52 -36 -97 -39 -41 -2 -110 22 -143 51 -48 41 -102
127 -127 202 -25 73 -27 94 -27 226 0 80 3 159 6 175 25 126 42 187 65 233 15
29 31 55 35 58 4 3 8 14 8 25 0 10 4 19 10 19 5 0 23 20 40 45 17 25 36 45 41
45 6 0 23 8 37 19 15 10 34 18 42 18 8 1 32 8 53 17 20 9 37 14 37 10 0 -3 7
2 16 10 8 9 20 14 25 11 5 -4 9 -1 9 5 0 6 5 8 12 4 6 -4 8 -3 5 3 -4 5 2 19
13 31 12 12 16 23 10 27 -7 4 -7 13 0 24 5 10 7 21 3 24 -6 7 -14 52 -14 82 0
10 -5 25 -10 32 -6 6 -8 17 -4 23 3 5 2 10 -4 10 -6 0 -13 16 -17 35 -3 19 -9
35 -13 35 -4 0 -8 6 -9 13 -3 25 -10 62 -12 62 -4 0 -11 43 -11 67 1 15 -3 29
-8 33 -6 3 -7 13 -4 22 5 11 3 14 -6 8 -10 -6 -11 -3 -2 13 11 21 0 25 -25 9
-7 -4 -14 2 -17 14 -3 12 -3 18 0 15 4 -3 12 -1 20 5 9 9 13 8 13 0 0 -6 4
-11 8 -11 5 0 9 6 9 14 0 9 -8 13 -24 10 -21 -4 -23 -2 -13 16 11 20 7 29 -5
10z m42 -136 c-3 -3 -12 -4 -19 -1 -8 3 -5 6 6 6 11 1 17 -2 13 -5z m83 -458
c0 -3 -4 -8 -10 -11 -5 -3 -10 -1 -10 4 0 6 5 11 10 11 6 0 10 -2 10 -4z m62
-898 c-7 -7 -10 -5 -7 8 5 29 6 30 12 16 3 -8 1 -18 -5 -24z"/>
<path d="M9450 16219 c-818 -38 -1651 -211 -2426 -504 -867 -327 -1823 -885
-2253 -1315 -128 -128 -210 -239 -277 -375 -120 -245 -152 -506 -94 -767 71
-323 289 -593 609 -757 204 -105 390 -151 603 -151 308 0 483 73 1016 422 150
98 328 212 395 252 783 471 1633 745 2531 816 166 13 621 13 801 0 521 -38
1099 -164 1591 -348 1623 -606 3021 -1878 4009 -3647 90 -160 301 -579 370
-735 325 -727 559 -1004 961 -1139 401 -135 822 -44 1105 238 167 168 261 366
290 613 6 55 8 124 4 152 -3 28 -7 65 -7 83 -1 18 -5 30 -9 28 -4 -3 -6 -13
-4 -23 1 -9 -3 -23 -9 -31 -6 -8 -11 -32 -12 -55 0 -23 -6 -42 -12 -42 -7 -1
-17 -2 -22 -3 -6 0 -8 -13 -6 -27 4 -19 1 -24 -9 -21 -13 5 -29 -25 -26 -49 1
-7 -6 -11 -16 -10 -10 0 -19 -9 -23 -24 -4 -14 -12 -24 -19 -22 -6 1 -16 -9
-21 -23 -5 -14 -17 -25 -25 -25 -10 0 -13 -5 -9 -12 5 -7 2 -9 -8 -5 -10 3
-25 -4 -39 -19 -17 -18 -25 -21 -31 -12 -4 8 -8 9 -8 2 0 -12 -50 -38 -57 -30
-3 3 -17 0 -32 -6 -33 -13 -91 -17 -91 -6 0 5 -8 4 -18 -1 -23 -12 -111 8
-178 43 -29 14 -56 26 -62 26 -5 0 -12 7 -16 15 -3 8 -12 15 -21 15 -8 0 -15
5 -15 10 0 6 -5 10 -11 10 -12 0 -89 77 -89 89 0 5 -13 19 -28 32 -16 13 -32
32 -35 42 -4 10 -11 15 -17 12 -5 -3 -10 -1 -10 6 0 7 -11 27 -25 45 -14 18
-25 37 -25 43 0 5 -10 22 -22 38 -13 15 -29 39 -37 53 -8 14 -36 63 -63 109
-26 46 -48 90 -48 97 0 7 -5 16 -10 19 -6 3 -23 32 -39 63 -49 99 -93 177
-103 183 -5 3 -8 8 -6 10 5 8 -35 89 -44 89 -5 0 -6 5 -3 10 3 6 1 10 -6 10
-7 0 -9 3 -6 6 6 6 -38 99 -53 114 -3 3 -16 26 -30 53 -13 26 -28 47 -32 47
-5 0 -8 6 -8 14 0 8 -6 21 -12 28 -7 7 -21 29 -31 48 -9 19 -33 60 -52 90 -20
30 -40 65 -45 78 -5 12 -14 22 -19 22 -5 0 -14 12 -20 28 -15 36 -52 96 -80
128 -12 13 -19 29 -16 34 3 5 -3 18 -15 30 -11 11 -20 23 -20 26 0 7 -63 88
-72 92 -5 2 -8 10 -8 18 0 8 -4 14 -9 14 -5 0 -12 8 -15 18 -3 9 -21 35 -41
57 -19 22 -35 44 -35 49 0 4 -12 23 -27 41 -16 18 -37 45 -48 60 -11 14 -28
35 -37 46 -10 10 -18 22 -18 27 0 4 -9 13 -20 20 -11 7 -20 17 -20 22 0 9 -26
43 -58 76 -7 8 -11 14 -7 14 3 0 -2 11 -11 25 -9 14 -20 22 -25 19 -5 -3 -9 0
-9 7 0 6 -11 22 -24 34 -14 13 -22 26 -19 29 4 3 0 6 -8 6 -15 0 -56 58 -51
73 1 5 -2 6 -7 3 -5 -4 -18 5 -28 20 -10 14 -30 38 -45 53 -16 16 -28 33 -28
38 0 5 -11 23 -25 39 -14 16 -25 33 -25 38 0 5 -3 7 -6 3 -3 -3 -20 11 -37 31
-67 80 -347 366 -347 355 0 -4 -13 11 -30 33 -16 21 -52 59 -81 84 -79 70
-129 119 -129 129 0 5 -11 12 -25 15 -14 4 -23 11 -20 16 3 6 2 10 -4 10 -5 0
-32 23 -59 50 -27 28 -52 50 -55 50 -7 0 -71 55 -124 106 -23 23 -45 39 -48
36 -5 -5 -9 14 -6 31 2 12 -17 8 -22 -5 -3 -8 -6 -5 -6 6 -1 12 -6 16 -16 12
-10 -3 -17 3 -21 19 -6 23 -15 30 -37 26 -5 -1 -6 3 -3 8 3 5 -1 14 -9 21 -8
7 -15 10 -15 6 0 -3 -12 7 -27 22 -42 42 -120 102 -132 102 -6 0 -11 4 -11 9
0 5 -13 14 -30 21 -16 7 -30 19 -30 26 0 8 -11 16 -25 20 -14 3 -25 10 -25 16
0 5 -5 6 -10 3 -6 -4 -9 -1 -8 5 2 7 -11 19 -27 28 -17 10 -44 29 -60 45 -16
15 -36 27 -43 27 -16 0 -42 24 -42 39 0 6 -3 10 -7 9 -16 -4 -51 13 -57 27 -3
8 -14 15 -25 15 -11 0 -28 11 -39 25 -11 14 -27 25 -36 25 -9 0 -16 5 -16 12
0 6 -3 9 -6 5 -4 -3 -15 4 -25 16 -10 12 -18 18 -19 13 0 -5 -9 1 -19 13 -11
12 -22 22 -25 22 -18 -2 -26 1 -52 24 -16 14 -40 28 -53 32 -13 3 -32 13 -42
22 -36 33 -47 40 -53 34 -3 -4 -6 -1 -6 5 0 7 -27 24 -60 39 -33 14 -60 30
-60 35 0 4 -6 8 -13 8 -7 0 -31 13 -53 30 -21 16 -47 30 -56 30 -10 0 -18 4
-18 9 0 5 -15 14 -32 21 -18 7 -38 19 -44 26 -6 8 -21 15 -33 17 -13 2 -26 9
-31 17 -4 7 -12 10 -18 6 -5 -3 -16 1 -23 10 -12 14 -64 40 -64 32 0 -1 -15 7
-32 20 -18 13 -43 25 -55 27 -13 3 -24 9 -26 15 -2 6 -13 15 -24 21 -11 6 -18
7 -15 1 4 -5 -32 10 -78 33 -47 24 -83 39 -80 35 3 -4 -28 9 -68 29 -90 45
-153 71 -171 71 -8 0 -18 5 -21 10 -3 6 -15 10 -26 10 -10 0 -19 4 -19 9 0 8
-10 12 -60 28 -8 2 -21 5 -27 5 -7 1 -13 5 -13 10 0 4 -5 8 -10 8 -11 0 -186
62 -225 80 -71 32 -106 44 -160 54 -5 1 -14 4 -20 7 -5 3 -39 14 -75 24 -36
10 -92 27 -125 39 -33 11 -64 20 -69 18 -4 -1 -13 2 -20 7 -6 6 -25 12 -41 15
-62 12 -74 15 -93 25 -11 6 -22 8 -24 5 -3 -2 -17 0 -32 6 -15 5 -37 12 -49
14 -20 4 -83 19 -132 32 -23 6 -71 15 -100 19 -68 9 -105 19 -105 27 0 5 -5 6
-10 3 -6 -4 -36 -1 -68 6 -105 23 -134 27 -190 28 -21 1 -31 5 -27 12 5 7 -8
9 -39 6 -25 -2 -46 0 -46 6 0 5 -18 7 -40 4 -21 -2 -41 -1 -42 3 -3 7 -80 17
-183 25 -16 1 -41 5 -54 9 -16 6 -26 4 -32 -5 -7 -11 -9 -11 -9 -1 0 7 -4 10
-10 7 -5 -3 -15 -3 -21 1 -7 4 -65 8 -130 9 -66 1 -122 5 -125 8 -4 3 -15 2
-25 -4 -13 -7 -19 -6 -19 1 0 6 -4 9 -9 5 -5 -3 -12 -1 -16 5 -3 5 -11 10 -16
10 -6 0 -8 -4 -5 -9 4 -5 -3 -7 -14 -4 -11 3 -20 0 -20 -6 0 -9 -5 -9 -20 -1
-11 6 -35 8 -54 5 -19 -4 -43 -2 -54 4 -15 8 -23 8 -28 0 -4 -8 -9 -7 -15 2
-6 10 -9 10 -9 2 0 -9 -7 -10 -26 -3 -14 6 -23 6 -20 1 3 -5 -1 -12 -10 -15
-8 -3 -12 -2 -9 4 8 13 -21 13 -46 0 -13 -7 -19 -7 -19 0 0 5 -5 10 -11 10 -5
0 -7 -6 -3 -12 5 -10 4 -10 -5 -2 -8 7 -25 9 -44 4 -18 -4 -41 -4 -52 0 -11 4
-24 5 -28 3 -5 -3 -45 -7 -90 -8 -237 -10 -333 -17 -341 -25 -5 -5 -19 -4 -33
3 -16 7 -27 7 -31 1 -4 -6 -27 -11 -52 -13 -25 -1 -58 -6 -75 -11 -16 -5 -41
-9 -55 -8 -14 0 -45 -3 -70 -7 -25 -4 -55 -8 -67 -9 -11 -1 -19 -5 -16 -9 3
-4 -13 -7 -34 -7 -21 1 -51 -2 -68 -5 -16 -3 -41 -7 -55 -9 -14 -2 -27 -5 -30
-6 -3 -1 -9 -2 -13 -1 -4 1 -10 -5 -13 -13 -4 -11 -12 -13 -29 -6 -13 5 -26 5
-31 0 -5 -5 -18 -11 -29 -13 -11 -1 -24 -5 -30 -8 -5 -4 -21 -5 -35 -4 -14 1
-33 -2 -44 -7 -14 -8 -17 -7 -10 4 5 8 0 7 -18 -4 -14 -9 -45 -19 -69 -22 -24
-3 -45 -9 -46 -13 -2 -5 -17 -8 -33 -7 -17 1 -28 -2 -25 -6 4 -7 -66 -22 -89
-19 -5 0 -13 -5 -17 -13 -7 -11 -9 -11 -9 0 0 10 -4 9 -16 -2 -8 -9 -20 -14
-25 -11 -5 4 -9 1 -9 -6 0 -8 -4 -8 -15 1 -12 10 -16 10 -20 -2 -3 -8 -19 -13
-40 -12 -19 1 -32 -2 -29 -7 3 -5 -5 -10 -18 -10 -77 -5 -103 -10 -118 -24
-10 -9 -21 -15 -26 -14 -22 4 -33 -3 -36 -21 -3 -19 -5 -19 -31 -5 -27 14 -57
11 -57 -5 0 -5 9 -7 20 -5 11 2 18 0 15 -5 -3 -5 -15 -7 -27 -5 -12 3 -27 -3
-35 -13 -12 -16 -13 -15 -6 3 3 11 3 17 -2 13 -4 -4 -14 -3 -22 3 -16 14 -17
-3 -1 -19 9 -9 7 -12 -12 -14 -14 0 -33 -1 -42 0 -10 1 -18 -5 -18 -14 0 -10
-6 -14 -15 -10 -8 3 -15 2 -15 -3 0 -11 -37 -23 -77 -24 -33 -1 -44 -11 -20
-20 6 -2 -4 -3 -23 -2 -19 1 -51 -4 -69 -12 -19 -7 -41 -11 -48 -9 -7 3 -13 1
-13 -5 0 -6 -4 -7 -10 -4 -5 3 -10 1 -10 -4 0 -6 -4 -11 -9 -11 -5 0 -26 -8
-47 -17 -41 -17 -47 -20 -65 -22 -5 0 -7 -6 -3 -12 4 -7 1 -10 -7 -7 -8 3 -20
-2 -27 -11 -11 -14 -11 -14 -6 2 4 11 1 17 -10 17 -10 0 -16 -9 -17 -22 -1
-17 -3 -18 -6 -6 -2 10 -10 15 -19 11 -7 -3 -11 -9 -8 -14 3 -5 -2 -9 -10 -9
-9 0 -16 -5 -16 -10 0 -7 -7 -7 -22 1 -18 10 -20 9 -14 -6 6 -16 4 -16 -11 -4
-14 12 -16 12 -8 0 6 -11 3 -13 -13 -9 -12 4 -22 2 -22 -3 0 -5 5 -9 11 -9 5
0 7 -5 4 -10 -4 -6 -10 -8 -15 -5 -4 3 -11 -1 -13 -7 -4 -10 -6 -10 -6 0 -1 6
-6 12 -12 12 -5 0 -7 -5 -3 -12 5 -8 0 -9 -14 -6 -12 4 -25 1 -29 -4 -3 -6 -1
-8 5 -4 6 3 13 2 17 -4 6 -10 1 -12 -47 -13 -15 -1 -24 -5 -22 -9 3 -4 -2 -8
-10 -8 -9 0 -16 -4 -16 -9 0 -5 -8 -7 -18 -5 -9 3 -27 -4 -40 -16 -12 -11 -22
-18 -22 -15 0 3 -10 -1 -21 -9 -12 -8 -27 -12 -34 -10 -6 3 -18 -2 -25 -11
-10 -12 -16 -13 -28 -3 -13 10 -14 10 -8 1 4 -8 1 -13 -8 -14 -29 -3 -34 -4
-42 -11 -4 -5 -15 -8 -25 -8 -9 0 -19 -5 -21 -11 -2 -5 -10 -11 -18 -13 -40
-8 -79 -29 -74 -38 4 -6 1 -8 -7 -6 -8 3 -26 -1 -41 -9 -15 -7 -30 -13 -33
-13 -3 0 -7 -1 -10 -1 -3 -1 -14 -2 -25 -3 -10 0 -25 -9 -33 -19 -7 -11 -25
-20 -40 -20 -15 -1 -27 -6 -27 -11 0 -5 -3 -7 -6 -4 -3 3 -28 -2 -55 -12 -28
-9 -61 -16 -75 -14 -14 1 -22 -2 -18 -8 4 -7 -8 -9 -34 -6 -22 2 -38 0 -35 -5
2 -4 -13 -7 -34 -7 -21 1 -66 -1 -100 -3 -35 -2 -63 0 -63 5 0 5 -4 7 -8 4
-17 -10 -129 39 -192 84 -39 27 -120 108 -120 120 0 4 -12 34 -26 66 -28 61
-39 132 -35 219 2 28 4 65 4 83 1 17 6 32 10 32 5 0 7 6 4 13 -2 6 3 30 11 52
8 22 15 55 16 74 1 19 7 36 14 39 6 2 9 9 6 16 -5 14 20 69 28 61 11 -11 1 71
-11 94 -7 13 -9 21 -4 18 5 -4 10 0 10 8 0 8 -3 13 -6 12 -3 -1 -8 3 -9 8 -2
6 -9 16 -15 24 -7 7 -12 21 -12 30 0 9 -7 16 -15 16 -9 0 -14 8 -12 18 2 10
-3 17 -13 17 -9 0 -14 4 -10 9 3 5 -1 15 -8 23 -22 23 -12 124 17 167 41 61
220 232 282 271 13 8 24 18 24 22 0 5 6 8 14 8 8 0 16 3 18 8 2 4 28 24 59 44
30 20 61 44 68 52 8 9 18 16 23 16 5 0 14 5 21 10 51 43 593 370 613 370 2 0
27 14 56 31 89 53 512 259 532 259 3 0 29 11 58 24 29 13 100 43 158 66 58 22
121 48 140 57 126 57 729 249 810 258 8 1 53 11 100 22 118 30 210 49 315 68
50 9 101 19 115 22 14 3 50 9 80 14 30 4 87 13 125 19 86 14 105 16 230 30 55
6 120 13 145 15 185 21 722 27 940 11 36 -3 106 -7 155 -10 132 -7 27 9 -190
29 -370 33 -709 41 -1075 24z m-1286 -2327 c3 -5 -1 -9 -9 -9 -8 0 -12 4 -9 9
3 4 7 8 9 8 2 0 6 -4 9 -8z m-3170 -52 c30 -27 65 -90 49 -90 -3 0 -1 -6 4
-12 6 -8 9 -87 8 -190 -1 -97 2 -201 6 -230 12 -77 16 -148 9 -148 -4 0 -7 -6
-7 -12 -2 -37 -15 -74 -30 -85 -9 -7 -37 -13 -62 -13 -39 0 -52 6 -88 39 -111
101 -167 370 -119 578 20 89 39 125 81 157 19 15 35 25 35 22 0 -3 10 -1 23 4
38 15 55 11 91 -20z"/>
<path d="M10818 16153 c7 -3 16 -2 19 1 4 3 -2 6 -13 5 -11 0 -14 -3 -6 -6z"/>
<path d="M9955 11864 c-956 -74 -1887 -419 -2628 -972 -415 -311 -588 -609
-589 -1016 -1 -568 375 -985 972 -1081 119 -19 296 -19 392 -1 177 34 293 92
613 307 304 204 501 304 785 399 280 93 491 129 805 137 318 8 560 -24 864
-112 748 -218 1467 -771 1995 -1535 143 -206 253 -397 417 -722 82 -164 173
-332 202 -375 170 -256 446 -434 780 -504 141 -30 339 -30 451 0 319 85 596
375 700 732 100 347 26 686 -284 1299 -332 656 -775 1267 -1284 1775 -874 870
-1917 1425 -3026 1609 -296 49 -406 58 -770 61 -190 1 -367 1 -395 -1z m760
-204 c0 0 56 -2 125 -4 69 -2 133 -7 143 -11 9 -4 17 -3 17 2 0 9 63 6 90 -4
8 -3 33 -7 55 -9 22 -1 60 -5 85 -9 25 -3 55 -6 68 -5 13 0 31 -4 41 -10 12
-6 22 -5 31 3 8 7 10 8 7 1 -4 -7 13 -13 51 -17 31 -4 71 -10 87 -14 17 -3 42
-7 58 -7 15 -1 27 -5 27 -9 0 -5 8 -7 18 -6 17 2 62 -7 92 -18 8 -4 19 -5 24
-4 4 1 24 -3 43 -10 19 -6 47 -13 61 -14 63 -8 83 -13 108 -30 17 -11 24 -12
18 -4 -6 11 -5 12 7 2 14 -11 86 -29 102 -25 4 1 7 -3 7 -8 0 -6 12 -10 26
-10 14 0 34 -5 45 -11 11 -6 29 -12 40 -14 11 -2 34 -11 51 -20 17 -8 37 -15
44 -15 6 0 36 -11 65 -24 29 -14 56 -23 61 -20 4 3 8 1 8 -3 0 -5 17 -15 38
-22 20 -8 48 -18 62 -24 14 -6 27 -11 30 -12 3 0 20 -9 38 -18 17 -10 32 -14
32 -10 0 5 5 0 11 -9 5 -10 16 -18 23 -18 8 0 26 -7 42 -14 15 -8 31 -13 36
-10 4 3 11 -2 14 -10 3 -9 14 -16 24 -16 11 0 21 -4 25 -10 3 -5 39 -25 80
-44 41 -19 85 -44 97 -56 12 -11 30 -20 40 -20 10 0 18 -4 18 -9 0 -5 8 -11
18 -15 9 -3 31 -15 47 -26 25 -17 65 -37 85 -43 3 -1 13 -8 23 -17 10 -8 22
-15 26 -15 5 0 18 -11 30 -23 12 -15 25 -21 33 -16 7 4 10 4 6 0 -8 -10 14
-36 25 -29 4 2 7 -1 7 -7 0 -6 4 -9 9 -5 6 3 13 0 18 -7 4 -7 25 -22 45 -33
20 -10 35 -23 32 -27 -3 -4 2 -8 10 -8 8 0 25 -10 37 -22 12 -13 18 -16 14 -8
-4 8 1 6 12 -5 37 -36 68 -60 76 -57 4 1 7 -5 7 -13 0 -8 6 -12 14 -9 9 3 17
-3 21 -15 3 -12 11 -21 16 -21 9 0 75 -47 107 -78 8 -7 18 -9 24 -6 6 4 9 3 7
-2 -3 -5 12 -26 33 -46 21 -21 38 -35 38 -33 0 3 20 -15 44 -40 25 -25 46 -45
48 -45 10 0 98 -89 98 -99 0 -6 4 -10 9 -8 11 3 91 -80 91 -95 0 -6 3 -8 7 -5
9 10 113 -105 106 -117 -4 -5 1 -7 10 -3 10 4 17 1 17 -6 0 -7 11 -21 25 -31
14 -10 25 -25 25 -33 0 -8 4 -11 10 -8 6 3 7 -1 4 -9 -3 -9 -2 -16 3 -16 17 0
75 -58 69 -69 -8 -12 28 -34 38 -23 4 3 4 -1 0 -11 -4 -11 -1 -17 7 -17 7 0 9
-3 6 -7 -4 -3 3 -11 15 -17 11 -6 26 -20 32 -31 6 -11 16 -23 21 -27 6 -4 7
-8 3 -8 -5 0 10 -18 32 -41 22 -23 38 -45 35 -49 -3 -5 3 -11 14 -15 10 -3 18
-13 17 -23 0 -9 5 -16 12 -14 8 1 11 -2 8 -7 -4 -5 4 -17 16 -25 12 -9 19 -18
15 -22 -6 -6 46 -77 85 -117 10 -10 15 -24 11 -34 -4 -9 -2 -14 3 -11 5 3 17
-4 27 -14 14 -15 15 -18 3 -16 -8 2 -14 -1 -13 -7 1 -5 5 -9 10 -8 4 2 7 -2 7
-7 0 -6 6 -10 14 -10 10 0 13 -7 11 -21 -3 -16 -1 -18 9 -10 11 9 12 6 9 -13
-4 -19 0 -25 21 -30 23 -6 25 -9 15 -27 -8 -16 -8 -20 0 -15 12 8 43 -17 39
-31 -4 -14 32 -73 45 -73 9 0 8 -3 -1 -9 -10 -6 -8 -10 10 -15 22 -6 23 -7 4
-21 -18 -14 -18 -15 -2 -15 19 0 39 -18 44 -39 1 -7 9 -20 17 -28 9 -8 13 -19
10 -24 -4 -5 -1 -9 4 -9 6 0 11 -7 11 -16 0 -9 -5 -13 -12 -9 -7 4 2 -7 20
-23 31 -27 44 -51 21 -36 -7 4 -10 1 -7 -7 3 -8 11 -13 18 -11 10 2 10 -1 -1
-14 -11 -13 -11 -18 -1 -21 17 -6 15 -23 -3 -23 -17 0 -35 30 -35 61 0 18 -3
20 -12 11 -17 -17 -38 -15 -38 4 0 8 -5 12 -10 9 -6 -4 -8 -11 -5 -16 4 -5 1
-9 -5 -9 -6 0 -9 8 -6 18 4 10 -1 27 -9 38 -13 17 -14 17 -15 2 0 -10 5 -18
10 -18 6 0 10 -5 10 -11 0 -5 -5 -7 -12 -3 -7 4 -8 3 -4 -4 4 -7 2 -12 -3 -12
-6 0 -11 5 -11 10 0 6 -6 10 -13 10 -8 0 -14 -6 -14 -14 0 -8 6 -12 13 -9 6 2
15 0 19 -6 3 -6 2 -11 -3 -11 -5 0 -9 -7 -9 -15 0 -14 10 -19 30 -16 5 1 6 -3
2 -8 -3 -6 -13 -7 -23 -4 -9 3 -14 2 -9 -2 4 -5 22 -10 40 -11 47 -2 47 -2 46
-26 l0 -23 -9 23 c-10 25 -20 28 -38 10 -8 -8 -8 -17 -1 -30 5 -10 7 -23 3
-29 -3 -6 7 -4 23 5 26 13 30 13 30 0 0 -8 -6 -13 -14 -10 -7 3 -13 -1 -13
-10 0 -9 -5 -12 -12 -8 -7 4 -8 3 -4 -5 4 -6 12 -9 17 -6 5 4 9 2 9 -4 0 -5
-6 -12 -12 -15 -7 -3 -1 -3 15 -1 15 2 25 0 22 -6 -4 -5 -1 -9 5 -9 6 0 9 -4
5 -9 -3 -6 3 -14 12 -20 17 -10 17 -10 1 -11 -10 0 -18 -5 -18 -11 0 -5 5 -7
10 -4 10 6 14 -6 10 -39 -1 -11 3 -15 9 -12 7 4 11 -1 11 -13 0 -11 4 -22 10
-26 5 -3 7 -11 4 -18 -2 -7 6 -29 20 -49 18 -28 21 -39 13 -48 -9 -10 -9 -11
0 -6 8 4 15 -3 18 -21 4 -15 20 -56 36 -90 16 -35 29 -67 29 -73 0 -5 9 -29
19 -52 17 -38 28 -66 57 -143 4 -11 8 -22 9 -25 1 -3 7 -18 13 -33 7 -16 12
-32 12 -37 0 -5 4 -10 10 -12 5 -1 10 -18 12 -35 1 -18 6 -33 10 -33 4 0 8 -7
8 -15 0 -8 6 -15 13 -15 8 0 7 -4 -3 -10 -10 -7 -11 -13 -5 -17 6 -5 12 -21
13 -37 1 -16 6 -34 12 -41 5 -6 8 -14 6 -16 -2 -2 -1 -23 4 -46 5 -30 4 -43
-4 -43 -7 0 -7 -3 1 -8 7 -4 10 -20 7 -37 -2 -17 -6 -50 -9 -75 -2 -25 -6 -54
-9 -65 -2 -11 -5 -23 -5 -27 -1 -4 -25 -32 -55 -62 -52 -52 -58 -55 -121 -61
-142 -16 -219 22 -350 168 -14 15 -25 32 -25 37 0 5 -11 25 -25 45 -13 21 -32
56 -42 78 -41 98 -236 473 -313 602 -103 173 -221 355 -270 415 -19 25 -48 63
-62 85 -14 22 -38 52 -52 67 -14 15 -26 30 -26 34 0 4 -17 26 -37 49 -21 23
-49 57 -63 76 -14 19 -39 49 -57 68 -18 18 -33 35 -33 38 0 3 -19 23 -41 44
-23 22 -39 39 -35 39 3 0 -14 20 -38 45 -25 25 -50 45 -55 45 -6 0 -10 3 -9 8
4 12 -187 196 -292 282 -24 19 -50 42 -59 51 -9 8 -47 40 -86 69 -38 30 -83
67 -100 82 -16 15 -33 28 -37 28 -11 0 -93 57 -108 75 -7 8 -18 15 -26 15 -7
0 -19 6 -26 13 -17 16 -135 97 -141 97 -3 0 -40 20 -81 45 -42 25 -81 45 -85
45 -5 0 -11 4 -13 8 -6 14 -392 200 -431 208 -10 1 -32 10 -49 19 -17 8 -34
15 -38 15 -4 0 -25 8 -46 17 -22 9 -42 18 -46 19 -5 1 -10 3 -13 4 -3 1 -8 3
-12 5 -5 1 -16 5 -25 9 -9 4 -22 9 -30 10 -7 1 -23 7 -34 14 -12 6 -24 8 -28
5 -3 -4 -16 -1 -29 5 -26 14 -104 35 -232 64 -49 11 -97 23 -105 26 -28 9 -75
17 -215 37 -290 40 -576 47 -865 20 -143 -14 -216 -23 -305 -40 -44 -9 -98
-18 -120 -21 -22 -3 -51 -9 -65 -15 -29 -11 -54 -17 -127 -31 -29 -5 -53 -13
-53 -17 0 -4 -8 -8 -17 -8 -10 -1 -58 -16 -108 -33 -49 -17 -106 -35 -125 -40
-19 -5 -36 -13 -38 -19 -2 -5 -10 -7 -18 -4 -8 3 -14 0 -14 -6 0 -6 -9 -11
-19 -11 -11 0 -23 -5 -26 -10 -4 -6 -11 -8 -16 -5 -5 4 -9 1 -9 -4 0 -6 -8
-11 -18 -11 -19 0 -363 -168 -372 -181 -3 -4 -17 -12 -30 -17 -23 -9 -158 -98
-360 -237 -155 -107 -282 -131 -395 -77 -102 49 -192 160 -220 269 -17 68 -6
163 30 252 19 47 42 91 50 97 8 6 15 16 15 21 0 5 11 20 25 33 13 12 22 27 19
32 -3 5 -2 7 3 6 15 -5 70 47 65 61 -3 8 0 11 6 7 5 -3 13 1 16 10 4 9 9 14
12 11 6 -6 12 -1 82 64 23 21 46 39 51 39 5 0 19 12 30 26 12 15 21 21 21 14
0 -7 3 -11 6 -8 3 4 6 10 6 15 0 15 20 33 38 33 9 0 23 11 30 25 7 13 17 22
21 20 4 -3 11 4 14 16 6 17 9 19 16 8 7 -11 9 -10 9 4 0 9 -6 17 -14 17 -8 0
-16 3 -19 8 -2 4 -2 2 -1 -5 2 -7 -1 -15 -7 -18 -5 -4 -9 -3 -8 2 1 4 1 17 0
28 -2 19 -3 18 -24 -6 -13 -14 -29 -23 -35 -21 -7 2 -29 -4 -50 -14 -20 -10
-46 -19 -57 -21 -11 -2 -43 -12 -71 -23 -117 -43 -256 -41 -303 5 -18 17 -22
30 -17 48 8 33 97 130 156 170 167 113 279 187 284 187 3 0 43 22 89 48 132
76 350 180 495 236 23 9 59 23 80 31 241 93 667 200 937 235 44 5 94 12 110
14 58 9 162 16 305 22 80 4 146 7 147 8 1 1 158 -2 158 -4z m-3413 -1513 c15
-5 19 -18 32 -111 1 -10 -1 -39 -6 -65 -5 -25 -11 -68 -13 -96 -3 -27 -10 -93
-16 -145 -6 -52 -12 -115 -14 -140 -2 -43 -21 -99 -34 -101 -3 0 -15 -2 -27
-4 -13 -3 -30 5 -44 20 -13 14 -20 25 -16 25 5 0 4 6 -2 13 -24 29 -42 337
-20 337 4 0 5 7 2 15 -4 9 -2 28 4 43 6 15 18 53 26 84 11 40 29 70 58 102 23
25 45 42 48 37 3 -4 13 -10 22 -14z m7768 -1337 c0 -5 -5 -10 -11 -10 -5 0 -7
5 -4 10 3 6 8 10 11 10 2 0 4 -4 4 -10z m-40 -100 c0 -5 -4 -10 -10 -10 -5 0
-10 5 -10 10 0 6 5 10 10 10 6 0 10 -4 10 -10z m115 -21 c-4 -5 -12 -9 -18 -8
-9 0 -8 2 1 6 6 2 9 10 6 15 -4 7 -2 8 5 4 6 -4 9 -12 6 -17z m34 -13 c7 -8 8
-17 3 -20 -6 -3 -12 3 -15 14 -6 24 -4 25 12 6z"/>
<path d="M8550 10750 c0 -5 5 -10 11 -10 5 0 7 5 4 10 -3 6 -8 10 -11 10 -2 0
-4 -4 -4 -10z"/>
<path d="M14480 9776 c0 -2 8 -10 18 -17 15 -13 16 -12 3 4 -13 16 -21 21 -21
13z"/>
<path d="M14910 8923 c8 -13 20 -19 29 -15 13 5 13 6 0 10 -7 3 -20 10 -28 16
-12 9 -12 8 -1 -11z"/>
<path d="M14951 8877 c-8 -10 -7 -14 2 -14 8 0 14 6 14 14 0 7 -1 13 -2 13 -2
0 -8 -6 -14 -13z"/>
<path d="M10355 7645 c-291 -32 -639 -133 -905 -263 -550 -268 -1007 -730
-1268 -1282 -66 -140 -152 -381 -191 -538 -111 -442 -98 -972 35 -1422 273
-928 1026 -1648 1964 -1876 227 -56 350 -72 595 -80 169 -6 212 -4 392 20 122
16 254 40 335 61 175 47 183 49 322 103 413 159 818 448 1095 782 344 414 545
868 622 1400 29 202 31 554 5 730 -75 506 -252 929 -552 1320 -42 56 -141 166
-218 244 -211 214 -362 328 -622 473 -279 155 -559 252 -874 304 -156 26 -218
31 -400 34 -137 3 -258 -1 -335 -10z m899 -459 c39 -16 97 -37 114 -40 7 -1
18 -8 24 -14 7 -7 20 -12 30 -12 10 0 18 -6 18 -13 0 -7 13 -23 29 -35 16 -12
38 -35 47 -52 10 -16 25 -30 34 -31 10 0 9 -3 -5 -9 -11 -5 -15 -9 -9 -9 7 -1
14 -8 17 -15 4 -10 1 -13 -8 -10 -9 4 -12 -1 -10 -13 2 -10 4 -18 5 -18 1 0 3
-12 5 -28 2 -15 0 -25 -6 -22 -8 5 -10 -2 -9 -30 0 -3 -6 -18 -14 -34 -9 -16
-12 -32 -8 -36 4 -3 2 -5 -4 -3 -6 1 -27 -10 -45 -27 -19 -16 -35 -27 -36 -25
-2 3 -10 -5 -19 -18 -9 -13 -22 -21 -30 -18 -9 3 -11 0 -7 -11 5 -12 2 -15
-10 -10 -13 5 -17 1 -18 -16 -1 -21 -1 -20 -8 3 -6 22 -8 23 -14 7 -4 -10 -11
-16 -15 -13 -5 3 -19 -1 -33 -8 -86 -44 -351 -53 -568 -20 -80 13 -217 66
-241 94 -3 3 -18 16 -34 28 -16 12 -25 22 -21 22 4 0 0 11 -9 25 -21 32 -18
103 6 134 10 13 18 29 18 36 0 32 161 145 255 180 28 10 55 22 61 27 6 4 14 5
17 1 4 -3 12 -1 19 4 15 12 96 33 153 40 22 2 41 6 42 7 9 9 261 -7 287 -18z
m546 -1021 c75 -14 208 -68 260 -105 15 -10 33 -20 40 -22 8 -2 24 -13 35 -25
12 -13 25 -20 28 -16 4 3 7 -1 7 -10 0 -9 5 -17 11 -17 5 0 8 -4 4 -9 -3 -5 4
-12 15 -16 11 -3 20 -13 20 -21 0 -8 7 -14 15 -14 9 0 18 -8 22 -17 3 -10 20
-30 36 -45 17 -16 27 -28 23 -28 -4 0 -1 -6 6 -14 7 -8 15 -12 17 -10 2 1 28
-45 58 -103 53 -103 73 -156 89 -238 4 -22 9 -47 11 -55 2 -8 4 -27 4 -42 0
-15 3 -30 7 -32 9 -5 7 -185 -2 -246 -11 -72 -36 -163 -52 -187 -8 -13 -14
-25 -13 -28 0 -4 -7 -17 -15 -31 -9 -13 -13 -24 -9 -24 5 0 3 -4 -3 -8 -5 -4
-21 -25 -34 -47 -35 -58 -48 -72 -120 -146 -36 -36 -80 -72 -97 -80 -18 -7
-33 -17 -33 -20 0 -6 -66 -36 -88 -40 -4 -1 -32 -10 -62 -21 -64 -22 -197 -30
-285 -17 -162 24 -306 99 -426 222 -106 108 -107 109 -123 149 -9 20 -21 40
-27 43 -8 6 -69 129 -78 157 -1 4 -8 26 -16 48 -8 22 -12 40 -9 40 2 0 0 8 -5
18 -5 9 -11 31 -14 47 -3 17 -9 41 -12 55 -10 37 -13 310 -4 310 4 0 8 8 7 18
0 21 7 47 21 85 6 15 9 27 6 27 -8 0 45 134 56 140 6 4 9 10 7 13 -1 4 4 14
12 24 8 10 21 29 27 43 7 14 19 34 25 44 19 29 132 136 143 136 6 0 27 15 47
34 20 19 39 31 42 28 3 -3 6 0 6 7 0 7 6 11 14 8 7 -3 19 0 25 6 13 13 34 18
84 20 20 1 37 5 37 9 0 22 153 24 260 3z m-2546 -869 c7 -38 16 -46 16 -14 0
15 6 25 15 25 8 0 15 -4 15 -9 0 -4 -4 -8 -10 -8 -5 0 -10 -5 -10 -11 0 -5 6
-7 13 -3 6 4 3 -3 -8 -17 -11 -13 -13 -18 -5 -11 8 6 19 12 25 12 5 -1 0 -9
-12 -19 -25 -21 -19 -38 6 -18 14 10 14 10 3 -4 -7 -9 -9 -25 -5 -34 5 -14 3
-16 -8 -11 -8 4 -5 0 5 -8 18 -15 15 -20 -9 -17 -5 1 -1 -6 9 -14 11 -8 15
-15 9 -15 -7 0 -10 -12 -9 -26 2 -14 0 -44 -4 -65 -4 -22 -3 -39 2 -39 5 0 6
-5 3 -10 -13 -22 -20 -194 -8 -213 3 -6 1 -7 -5 -3 -7 4 -12 2 -12 -3 0 -6 6
-11 13 -11 8 0 7 -4 -3 -10 -11 -7 -11 -10 -2 -10 7 0 10 -5 7 -10 -4 -6 -10
-8 -14 -6 -4 3 -8 -1 -8 -8 0 -9 7 -12 16 -9 12 4 12 2 -2 -8 -15 -12 -18 -31
-20 -106 -1 -50 -5 -89 -9 -86 -5 2 -8 -1 -8 -6 0 -6 5 -11 11 -11 6 0 7 -5 2
-12 -4 -7 -6 -22 -5 -33 1 -11 -7 -31 -17 -45 -19 -24 -25 -10 -8 18 5 6 4 12
-2 12 -5 0 -11 -6 -14 -12 -2 -7 -20 -13 -40 -13 -34 0 -41 6 -38 27 0 4 -6 5
-13 2 -11 -4 -13 0 -9 17 4 15 3 20 -5 15 -12 -7 -16 10 -12 47 1 10 -4 24
-10 32 -8 10 -8 24 -1 49 9 33 -1 62 -12 34 -3 -7 -3 4 -2 24 2 21 6 42 10 48
3 5 2 10 -2 10 -5 0 -9 9 -10 20 -1 11 2 18 6 16 4 -3 8 1 8 9 0 8 -3 12 -7
10 -3 -2 -7 12 -7 31 -1 18 3 32 7 29 7 -5 4 56 -5 82 -2 7 0 15 6 18 5 4 6
11 3 17 -4 6 -1 14 7 18 7 5 13 27 14 53 0 25 4 43 9 39 5 -3 6 2 3 12 -5 12
0 19 16 26 12 5 18 9 14 9 -5 1 -5 7 0 14 4 6 9 21 10 32 2 14 1 16 -6 7 -6
-11 -10 -9 -14 7 -3 12 -1 19 3 16 5 -3 15 4 23 15 7 11 16 18 19 15 3 -3 4 6
3 20 -2 14 1 25 7 25 6 0 7 7 4 16 -3 8 -2 13 3 10 5 -3 11 3 14 14 3 11 12
20 21 20 9 0 16 8 16 17 0 24 8 12 14 -21z"/>
</g>
</svg>
